<svg xmlns="http://www.w3.org/2000/svg" viewBox="0 0 200 200" role="img" aria-labelledby="title desc">
  <title id="title">Burger</title>
  <desc id="desc">A cheeseburger with lettuce, tomato and a meat patty</desc>
  <rect width="200" height="200" rx="24" fill="#fff3e0"/>
  <path d="M56 104 a44 36 0 0 1 88 0 z" fill="#f7c873"/>
  <ellipse cx="80" cy="92" rx="6" ry="3.5" fill="#fff8e1" transform="rotate(-15 80 92)"/>
  <ellipse cx="100" cy="88" rx="6" ry="3.5" fill="#fff8e1"/>
  <ellipse cx="120" cy="92" rx="6" ry="3.5" fill="#fff8e1" transform="rotate(15 120 92)"/>
  <rect x="44" y="104" width="112" height="16" rx="7" fill="#66bb6a"/>
  <path d="M44 108 q20 -8 40 -2 t48 0 t24 -2" stroke="#4caf50" stroke-width="4" fill="none" stroke-linecap="round"/>
  <rect x="42" y="120" width="116" height="12" rx="6" fill="#e53935"/>
  <rect x="46" y="132" width="108" height="10" rx="5" fill="#ffe082"/>
  <rect x="38" y="142" width="124" height="24" rx="11" fill="#8d4a2f"/>
  <path d="M52 147 q14 -8 28 -3 t28 0 t28 1 t24 -2" stroke="#6e351f" stroke-width="3" fill="none" stroke-linecap="round"/>
  <path d="M46 160 q20 8 44 -2 t40 -2 t34 0" stroke="#6e351f" stroke-width="3" fill="none" stroke-linecap="round"/>
  <path d="M48 172 a52 18 0 0 0 104 0 z" fill="#f0b94f"/>
</svg>