<svg xmlns="http://www.w3.org/2000/svg" viewBox="0 0 200 200" role="img" aria-labelledby="title desc">
  <title id="title">Ramen</title>
  <desc id="desc">A bowl of ramen noodles with chopsticks, egg and nori</desc>
  <rect width="200" height="200" rx="24" fill="#ffe8cc"/>
  <path d="M52 40 q8 -10 0 -18 M74 44 q8 -10 0 -18 M96 40 q8 -10 0 -18" stroke="#cfcfcf" stroke-width="4" fill="none" stroke-linecap="round"/>
  <path d="M32 128 a68 55 0 0 0 136 0 z" fill="#3e5c76"/>
  <ellipse cx="100" cy="122" rx="68" ry="22" fill="#2b3f54"/>
  <ellipse cx="100" cy="112" rx="60" ry="18" fill="#f6c445"/>
  <path d="M52 108 q10 -12 24 -6 M60 118 q14 -8 26 -2 M74 110 q12 -12 24 -4 M88 118 q12 -6 22 0 M112 108 q10 -8 22 -4" stroke="#e8b94b" stroke-width="4" fill="none" stroke-linecap="round" opacity="0.9"/>
  <ellipse cx="72" cy="112" rx="15" ry="10" fill="#fff8f0"/>
  <circle cx="72" cy="114" r="6" fill="#ffb300"/>
  <rect x="102" y="98" width="34" height="22" rx="4" fill="#2e4b33"/>
  <circle cx="126" cy="108" r="3" fill="#7cb342"/>
  <circle cx="120" cy="104" r="3" fill="#6d9f3a"/>
  <path d="M140 30 L128 100 M158 34 L150 100" stroke="#a9713b" stroke-width="5" stroke-linecap="round"/>
</svg>